<svg xmlns="http://www.w3.org/2000/svg" xmlns:xlink="http://www.w3.org/1999/xlink" version="1.1" x="0px" y="0px" viewBox="0 0 100 125" enable-background="new 0 0 100 100" xml:space="preserve"><g><path d="M91.971,21.949L78.051,8.029l-2.549-2.55l-2.551,2.55L8.03,72.951L5.48,75.5l2.55,2.551L21.949,91.97l2.55,2.551   l2.55-2.551l64.921-64.92l2.549-2.55L91.971,21.949z M24.5,89.421L10.58,75.5l4.037-4.037l5.844,5.846l1.593-1.595L16.21,69.87   l2.059-2.059l3.135,3.134l1.594-1.593l-3.135-3.135l2.058-2.06l5.844,5.845l1.594-1.594l-5.844-5.844l2.059-2.059l3.135,3.135   l1.593-1.594l-3.135-3.136l2.06-2.059l5.844,5.845l1.594-1.594L30.82,55.26l2.059-2.059l3.135,3.135l1.594-1.594l-3.135-3.135   l2.059-2.059l5.844,5.844l1.594-1.594l-5.844-5.844l2.058-2.058l3.135,3.135l1.593-1.594l-3.134-3.135l2.06-2.059l5.844,5.844   l1.594-1.594L45.43,40.65l2.059-2.059l3.135,3.135l1.594-1.593l-3.135-3.135l2.059-2.059l5.844,5.844l1.594-1.594l-5.844-5.844   l2.059-2.059l3.135,3.135l1.594-1.594l-3.135-3.135l2.059-2.059l5.844,5.844l1.594-1.594l-5.844-5.844l15.461-15.46L89.42,24.499   L24.5,89.421z"/><path d="M71.916,27.607c1.998,2,5.252,1.999,7.25,0c2-2,2-5.252,0-7.251c-1.998-1.999-5.252-2-7.25,0   C69.916,22.354,69.916,25.608,71.916,27.607z M77.254,22.268c0.947,0.947,0.947,2.481,0,3.427c-0.945,0.946-2.479,0.947-3.426,0   c-0.947-0.946-0.947-2.48,0-3.427C74.773,21.322,76.309,21.322,77.254,22.268z"/></g><text x="0" y="115" fill="#000000" font-size="5px" font-weight="bold" font-family="'Helvetica Neue', Helvetica, Arial-Unicode, Arial, Sans-serif">Created by Zbigniew Flakus</text><text x="0" y="120" fill="#000000" font-size="5px" font-weight="bold" font-family="'Helvetica Neue', Helvetica, Arial-Unicode, Arial, Sans-serif">from the Noun Project</text></svg>